<svg xmlns="http://www.w3.org/2000/svg" width="500" height="500" style="width:100%;height:100%"><defs><clipPath id="a"><path d="M0 0h500v500H0z"/></clipPath></defs><g clip-path="url(#a)"><path stroke-linecap="round" stroke-linejoin="round" stroke="#08A88A" stroke-width="12.04" d="M235.986 196.627l40.03 40.03-40.03 40.03" fill="none" display="block"/><g display="block"><path stroke-linecap="round" stroke-linejoin="round" stroke="#121331" stroke-width="12.04" d="M311.957 342.693H188.041c-28.224 0-51.105-22.881-51.105-51.105V167.672c0-28.224 22.881-51.105 51.105-51.105h123.916c28.224 0 51.105 22.881 51.105 51.105v123.916c0 28.224-22.881 51.105-51.105 51.105zm51.105-51.103v38.31c0 28.22-22.88 51.1-51.1 51.1h-123.92c-28.23 0-51.11-22.88-51.11-51.1v-38.31" fill="none"/><path stroke-linecap="round" stroke-linejoin="round" stroke="#121331" stroke-width="12.04" d="M166.925 185.826l.014-15.173c0-13.301 10.782-24.083 24.083-24.083l14.96-.013" fill="none"/></g></g></svg>