<svg xmlns="http://www.w3.org/2000/svg" width="500" height="500" style="width:100%;height:100%"><defs><filter id="a" filterUnits="objectBoundingBox" x="0%" y="0%" width="100%" height="100%"><feComponentTransfer in="SourceGraphic"><feFuncA type="table" tableValues="1.0 0.0"/></feComponentTransfer></filter><filter id="b" filterUnits="objectBoundingBox" x="0%" y="0%" width="100%" height="100%"><feComponentTransfer in="SourceGraphic"><feFuncA type="table" tableValues="1.0 0.0"/></feComponentTransfer></filter><mask id="d"><g filter="url(#a)"><g display="block"><path fill="#121331" d="M-15.535 7.499a27.197 27.197 0 01-3.538-2.988l-23.302-23.347m84.754.004L19.075 4.512a27.127 27.127 0 01-2.291 2.051m-59.163-25.399l35.315 35.383c3.899 3.906 10.23 3.907 14.129 0l35.31-35.371m-85.359-.746v56.984h86.039v-56.976l-86.039-.008z" transform="matrix(3.88 0 0 3.88 230.532 230.934)"/><path stroke-linecap="round" stroke-linejoin="round" fill-opacity="0" stroke="#08A88A" stroke-opacity="0" stroke-width="0" d="M170.256 260.03a105.526 105.526 0 01-13.727-11.594c-.002 0-90.412-90.586-90.412-90.586m328.846.016l-90.419 90.576a105.252 105.252 0 01-8.89 7.956"/><path stroke-linecap="round" stroke-linejoin="round" fill-opacity="0" stroke="#121331" stroke-width="0" d="M66.102 157.85l137.021 137.286c15.127 15.157 39.692 15.158 54.821.003l137.003-137.242"/><path stroke-linecap="round" stroke-linejoin="round" fill-opacity="0" stroke="#121331" stroke-width="0" d="M63.754 155.002V376.1h333.832V155.033l-333.832-.03z"/></g></g></mask><mask id="e"><g filter="url(#b)"><g display="block"><path fill="#121331" d="M-25.754-22.706c-6.62-.162-8.206 3.52-3.539 8.22L-8.707 6.236c4.667 4.698 12.15 4.604 16.696-.211l17.522-18.552c4.547-4.815 2.863-8.856-3.757-9.018l-47.508-1.162z" transform="matrix(3.88012 .0002 -.0002 3.88012 232.48 269.4)"/><path fill-opacity="0" stroke="#08A88A" stroke-width="0" d="M132.558 181.292c-25.69-.63-31.844 13.66-13.735 31.893l79.871 80.412c18.11 18.232 47.14 17.867 64.785-.814l67.987-71.98c17.646-18.68 11.114-34.36-14.575-34.99l-184.333-4.521z"/></g></g></mask><clipPath id="c"><path d="M0 0h500v500H0z"/></clipPath></defs><g clip-path="url(#c)"><g mask="url(#d)" display="block"><path stroke-linecap="round" stroke-linejoin="round" stroke="#08A88A" stroke-width="13.3084" d="M102.554 187.117V337.3h333.832V116.233l-333.832-.03s0 0 0 0v70.914" fill="none"/></g><g display="block"><path d="M170.256 260.03a105.526 105.526 0 01-13.727-11.594c-.002 0-90.412-90.586-90.412-90.586m328.846.016l-90.419 90.576a105.252 105.252 0 01-8.89 7.956" fill="none"/><path stroke-linecap="round" stroke-linejoin="round" stroke="#121331" stroke-width="13.3084" d="M66.102 157.85l137.021 137.286c15.127 15.157 39.692 15.158 54.821.003l137.003-137.242" fill="none"/><path stroke-linecap="round" stroke-linejoin="round" stroke="#121331" stroke-width="13.3084" d="M63.754 155.002V376.1h333.832V155.033l-333.832-.03z" fill="none"/></g><g mask="url(#e)" display="block"><path stroke-linecap="round" stroke-linejoin="round" stroke="#121331" stroke-width="13.3088116" d="M232.892 249.39c27.988.44 55.823 9.944 77.143 28.508 0-.002 82.488 71.81 82.488 71.81m-322.05-1.41l81.391-70.564c22.33-19.36 51.76-28.803 81.028-28.344" fill="none"/></g></g></svg>