<svg xmlns="http://www.w3.org/2000/svg" width="500" height="500" style="width:100%;height:100%"><defs><filter id="a" filterUnits="objectBoundingBox" x="0%" y="0%" width="100%" height="100%"><feComponentTransfer in="SourceGraphic"><feFuncA type="table" tableValues="1.0 0.0"/></feComponentTransfer></filter><filter id="b" filterUnits="objectBoundingBox" x="0%" y="0%" width="100%" height="100%"><feComponentTransfer in="SourceGraphic"><feFuncA type="table" tableValues="1.0 0.0"/></feComponentTransfer></filter><mask id="e"><g filter="url(#a)"><g display="block"><path stroke-linecap="round" stroke-linejoin="round" fill-opacity="0" stroke="#121331" stroke-width="12.32" d="M114.412 129.904c3.92-2.32 8.48-3.64 13.32-3.64 0 0 0 0 0 0 6 0 11.48 2 15.88 5.4m-29.2 138.24c3.92-2.32 8.48-3.64 13.32-3.64 0 0 0 0 0 0 6 0 11.48 2 15.88 5.4m-29.2-71.76c3.92-2.32 8.48-3.64 13.32-3.64 0 0 0 0 0 0 6 0 11.48 2 15.88 5.4m-29.2 138.24c3.92-2.32 8.48-3.64 13.32-3.64 0 0 0 0 0 0 6 0 11.48 2 15.88 5.4"/></g></g></mask><mask id="d"><g filter="url(#b)"><g display="block"><path stroke-linecap="round" stroke-linejoin="round" fill-opacity="0" stroke="#121331" stroke-width="12.32" d="M114.412 129.904c3.92-2.32 8.48-3.64 13.32-3.64 0 0 0 0 0 0 6 0 11.48 2 15.88 5.4m-29.2 138.24c3.92-2.32 8.48-3.64 13.32-3.64 0 0 0 0 0 0 6 0 11.48 2 15.88 5.4m-29.2-71.76c3.92-2.32 8.48-3.64 13.32-3.64 0 0 0 0 0 0 6 0 11.48 2 15.88 5.4m-29.2 138.24c3.92-2.32 8.48-3.64 13.32-3.64 0 0 0 0 0 0 6 0 11.48 2 15.88 5.4"/></g></g></mask><clipPath id="c"><path d="M0 0h500v500H0z"/></clipPath></defs><g clip-path="url(#c)"><g mask="url(#e)" display="block"><path stroke-linecap="round" stroke-linejoin="round" stroke="#08A88A" stroke-width="14.280000000000001" d="M274.493 264.525h-29.8c-11.587 0-20.982-9.395-20.982-20.982v-8.82c0-11.587 9.395-20.982 20.982-20.982h8.82c11.587 0 20.98 9.395 20.98 20.982v29.802zm0 0c37.006 0 37.006-24.941 37.006-24.941 0-33.217-26.926-60.143-60.142-60.143-33.217 0-60.143 26.926-60.143 60.143s26.926 60.143 60.143 60.143a59.884 59.884 0 0037.672-13.258" fill="none"/><path stroke-linecap="round" stroke-linejoin="round" stroke="#121331" stroke-width="12.32" d="M368 87.984l-240 .032v320h240V87.984z" fill="none"/></g><g display="block"><path stroke-linecap="round" stroke-linejoin="round" stroke="#121331" stroke-width="12.32" d="M123.772 168.944c-12.48-1.92-22.04-12.68-22.04-25.68 0-14.36 11.68-26 26-26 0 0 0 0 0 0 14.08 0 25.52 11.16 26 25.08m-29.96 166.6c-12.48-1.92-22.04-12.68-22.04-25.68 0-14.36 11.68-26 26-26 0 0 0 0 0 0 14.08 0 25.52 11.16 26 25.08m-29.96-43.4c-12.48-1.92-22.04-12.68-22.04-25.68 0-14.36 11.68-26 26-26 0 0 0 0 0 0 14.08 0 25.52 11.16 26 25.08m-29.96 166.6c-12.48-1.92-22.04-12.68-22.04-25.68 0-14.36 11.68-26 26-26 0 0 0 0 0 0 14.08 0 25.52 11.16 26 25.08" fill="none"/></g></g></svg>