<svg xmlns="http://www.w3.org/2000/svg" width="500" height="500" style="width:100%;height:100%"><defs><clipPath id="b"><path d="M0 0h500v500H0z"/></clipPath><filter id="a" filterUnits="objectBoundingBox" x="0%" y="0%" width="100%" height="100%"><feComponentTransfer in="SourceGraphic"><feFuncA type="table" tableValues="1.0 0.0"/></feComponentTransfer></filter><mask id="c"><g filter="url(#a)"><g display="block"><path fill="#121331" d="M-7.778-1.306l-15.12.693 1.193 1.798 13.25 3.125.677-5.616z" transform="matrix(-4.5 0 0 4.5 250.063 272.743)"/><path fill="#121331" d="M-7.778-1.306l-15.12.693 1.193 1.798 13.25 3.125.677-5.616z" transform="matrix(4.5 0 0 4.5 250.063 272.743)"/></g></g></mask></defs><g clip-path="url(#b)"><path stroke-linecap="round" stroke-linejoin="round" stroke="#FFF" stroke-width="12.6" d="M434.126 251.125c0 102.105-82.768 184.874-184.873 184.874-102.105 0-184.878-82.769-184.878-184.874 0-102.105 82.773-184.874 184.878-184.874 102.105 0 184.873 82.769 184.873 184.874z" fill="none" display="block"/><path stroke-linecap="round" stroke-linejoin="round" stroke="#FFF" stroke-width="12.6" d="M305.396 344.555c-15.503 11.286-34.583 17.946-55.207 17.946-20.623 0-39.703-6.66-55.206-17.946" fill="none" display="block"/><g mask="url(#c)" display="block"><path fill="#FFF" d="M319.097 206.971c-9.934 0-18 8.066-18 18s8.066 18 18 18c9.935 0 18-8.066 18-18s-8.065-18-18-18z"/><path stroke-linecap="round" stroke-linejoin="round" stroke="#E3E3E3" stroke-width="12.6" d="M301.376 162.813s31.5-4.5 56.25 21.375" fill="none"/><g><path fill="#FFF" d="M182.405 206.971c9.935 0 18 8.066 18 18s-8.065 18-18 18c-9.934 0-18-8.066-18-18s8.066-18 18-18z"/><path stroke-linecap="round" stroke-linejoin="round" stroke="#E3E3E3" stroke-width="12.6" d="M200.126 162.813s-31.5-4.5-56.25 21.375" fill="none"/></g></g></g></svg>