<svg xmlns="http://www.w3.org/2000/svg" width="500" height="500" style="width:100%;height:100%"><defs><clipPath id="a"><path d="M0 0h500v500H0z"/></clipPath></defs><g clip-path="url(#a)"><path stroke-linecap="round" stroke-linejoin="round" stroke="#FFF" stroke-width="12.6" d="M434.126 251.125c0 102.105-82.768 184.874-184.873 184.874-102.105 0-184.878-82.769-184.878-184.874 0-102.105 82.773-184.874 184.878-184.874 102.105 0 184.873 82.769 184.873 184.874z" fill="none" display="block"/><g display="block"><path fill="#FFF" d="M249.96 298.332c14.59 0 26.437 20.92 26.437 46.687 0 25.767-11.846 46.688-26.437 46.688-14.591 0-26.438-20.92-26.438-46.688 0-25.766 11.847-46.687 26.438-46.687z"/><path stroke-linecap="round" stroke-linejoin="round" stroke="#FFF" stroke-width="12.6" d="M249.96 298.332c14.59 0 26.437 20.92 26.437 46.687 0 25.767-11.846 46.688-26.437 46.688-14.591 0-26.438-20.92-26.438-46.688 0-25.766 11.847-46.687 26.438-46.687z" fill="none"/><path fill="#FFF" d="M249.96 298.332c14.59 0 26.437 20.92 26.437 46.687 0 25.767-11.846 46.688-26.437 46.688-14.591 0-26.438-20.92-26.438-46.688 0-25.766 11.847-46.687 26.438-46.687z"/></g><g display="block"><path fill="#FFF" d="M319.098 199.77c-9.935 0-18 11.293-18 25.201 0 13.908 8.065 25.2 18 25.2 9.934 0 18-11.292 18-25.2s-8.066-25.2-18-25.2z"/><path stroke-linecap="round" stroke-linejoin="round" stroke="#E3E3E3" stroke-width="12.6" d="M301.377 162.812s31.5-4.5 56.25 21.375" fill="none"/><g><path fill="#FFF" d="M182.405 199.77c9.935 0 18 11.293 18 25.201 0 13.908-8.065 25.2-18 25.2-9.934 0-18-11.292-18-25.2s8.066-25.2 18-25.2z"/><path stroke-linecap="round" stroke-linejoin="round" stroke="#E3E3E3" stroke-width="12.6" d="M200.126 162.812s-31.5-4.5-56.25 21.375" fill="none"/></g></g></g></svg>