<svg xmlns="http://www.w3.org/2000/svg" width="500" height="500" style="width:100%;height:100%"><defs><clipPath id="a"><path d="M0 0h500v500H0z"/></clipPath><mask id="b"><g display="block"><path fill="#121331" d="M0-19c10.486 0 19 8.514 19 19S10.486 19 0 19s-19-8.514-19-19 8.514-19 19-19z" transform="matrix(7.47 0 0 4.5 248.134 446.349)"/><path fill-opacity="0" stroke="#EB0050" stroke-width="0" d="M0-19c10.486 0 19 8.514 19 19S10.486 19 0 19s-19-8.514-19-19 8.514-19 19-19z" transform="matrix(7.47 0 0 4.5 248.134 446.349)"/></g></mask></defs><g clip-path="url(#a)"><path stroke-linecap="round" stroke-linejoin="round" stroke="#FFF" stroke-width="12.6" d="M434.126 251.125c0 102.105-82.768 184.874-184.873 184.874-102.105 0-184.878-82.769-184.878-184.874 0-102.105 82.773-184.874 184.878-184.874 102.105 0 184.873 82.769 184.873 184.874z" fill="none" display="block"/><g display="block"><path stroke-linecap="round" stroke-linejoin="round" stroke="#FFF" stroke-width="12.6" d="M345.44 216.812l-28.687 10.125 24.75 13.5M156.062 216.812l28.688 10.125-24.75 13.5" fill="none"/></g><g display="block"><path fill="#FFF" d="M318.064 305.755h-135s6.174 68.49 69.97 68.49c63.797 0 65.03-68.49 65.03-68.49z"/><path stroke-linecap="round" stroke-linejoin="round" stroke="#FFF" stroke-width="12.6" d="M318.064 305.755h-135s6.174 68.49 69.97 68.49c63.797 0 65.03-68.49 65.03-68.49z" fill="none"/></g><g mask="url(#b)" display="block"><path fill="#E3E3E3" d="M318.064 305.755h-135s6.174 68.49 69.97 68.49c63.797 0 65.03-68.49 65.03-68.49z"/><path stroke-linecap="round" stroke-linejoin="round" stroke="#FFF" stroke-width="12.915000000000001" d="M318.064 305.755h-135s6.174 68.49 69.97 68.49c63.797 0 65.03-68.49 65.03-68.49z" fill="none"/></g></g></svg>