<svg xmlns="http://www.w3.org/2000/svg" width="500" height="500" style="width:100%;height:100%"><defs><filter id="a" filterUnits="objectBoundingBox" x="0%" y="0%" width="100%" height="100%"><feComponentTransfer in="SourceGraphic"><feFuncA type="table" tableValues="1.0 0.0"/></feComponentTransfer></filter><filter id="b" filterUnits="objectBoundingBox" x="0%" y="0%" width="100%" height="100%"><feComponentTransfer in="SourceGraphic"><feFuncA type="table" tableValues="1.0 0.0"/></feComponentTransfer></filter><mask id="f"><g filter="url(#b)"><g display="block"><path fill="#121331" d="M-25.754-22.706c-6.62-.162-8.206 3.52-3.539 8.22L-8.707 6.236c4.667 4.698 12.15 4.604 16.696-.211l17.522-18.552c4.547-4.815 2.863-8.856-3.757-9.018l-47.508-1.162z" transform="matrix(3.7 0 0 3.7 250 250)"/><path fill-opacity="0" stroke="#08A88A" stroke-width="0" d="M154.712 165.986c-24.497-.6-30.365 13.029-13.096 30.414l76.168 76.675c17.27 17.385 44.952 17.036 61.777-.78l64.828-68.64c16.825-17.816 10.596-32.767-13.9-33.366l-175.777-4.303z"/></g></g></mask><mask id="e"><g display="block"><path fill="#121331" d="M42-66h-85.5v51.5l28 28 16-5.25 14.375 4.625L42-14.25V-66z" transform="matrix(3.7 0 0 3.7 250.925 196.35)"/><path fill-opacity="0" stroke="#08A88A" stroke-width="0" d="M406.325-47.85H89.975V142.7l103.6 103.6 59.2-19.425 53.188 17.113 100.362-100.363V-47.85z"/></g></mask><clipPath id="c"><path d="M0 0h500v500H0z"/></clipPath></defs><g clip-path="url(#c)"><g mask="url(#d)" display="block"><path d="M190.663 241.065a100.63 100.63 0 01-13.09-11.056l-86.218-86.384m313.59.015l-86.224 86.374a100.369 100.369 0 01-8.478 7.587" fill="none"/><path stroke-linecap="round" stroke-linejoin="round" stroke="#121331" stroke-width="12.950000000000001" d="M91.34 143.625l130.665 130.917c14.425 14.454 37.851 14.455 52.278.003L404.93 143.669" fill="none"/><path stroke-linecap="round" stroke-linejoin="round" stroke="#121331" stroke-width="12.950000000000001" d="M89.102 140.91v210.84h318.344V140.935l-318.344-.026z" fill="none"/></g><g mask="url(#f)" display="block"><path stroke-linecap="round" stroke-linejoin="round" stroke="#121331" stroke-width="12.950000000000001" d="M250.392 230.92c26.688.417 53.232 9.479 73.564 27.18 0-.003 78.662 68.472 78.662 68.472m-307.1-1.329l77.609-67.292c21.292-18.463 49.356-27.468 77.265-27.032" fill="none"/></g></g></svg>